Guest House Paradiso

.: INFO :.

Directed by 	Ade Edmondson
Produced by 	Phil McIntyre
Written by 	Rik Mayall
Ade Edmondson
Based on 	Bottom written by and starring Ade Edmondon and Rik Mayall
Starring 	Rik Mayall
Ade Edmondson
Distributed by 	Universal Pictures
Release date(s) 	December 3, 1999
Running time 	89 minutes
Country 	United Kingdom
Language 	Italian

.: CAST :.

    * Rik Mayall as Richard Twat
    * Adrian Edmondson as Eddie Elizabeth Ndingombaba
    * Vincent Cassel as Gino Bolognese
    * Hélène Mahieu as Gina Carbonara
    * Bill Nighy as Mr Johnson
    * Simon Pegg as Mr Nice
    * Fenella Fielding as Mrs Foxfur
    * Lisa Palfrey as Mrs Nice
    * Steve O'Donnell as Chef


.: STORYLINE :.

Guest House Paradiso is a 1999 British slapstick comedy film written by and starring comic duo Rik Mayall and Ade Edmondson, and directed by Edmondson his directorial debut. The film is semi-officially based on their comedy television series Bottom (in some territories, the DVD cover refers to it as The Bottom Movie). The key difference in the characters is in their names: Mayall's character, known as "Richard Richard" in the TV show, is here referred to as "Richard Twat" (although he regularly and angrily insists on the pronunciation "Thwaite"). Edmondson's character changes from "Edward Elizabeth Hitler" in the TV/live show to "Edward Elizabeth Ndingombaba". The film was made at Ealing studios and on location on the Isle of Wight.

.: SPECIFICS :.

General
Format                           : AVI
Format/Info                      : Audio Video Interleave
File size                        : 643 MiB
Duration                         : 1h 25mn
Overall bit rate                 : 1 047 Kbps
Writing application              : MEncoder 1.0pre7-3.3.4
Writing library                  : MPlayer

Video
ID                               : 0
Format                           : MPEG-4 Visual
Format profile                   : Simple@L1
Format settings, BVOP            : No
Format settings, QPel            : No
Format settings, GMC             : No warppoints
Format settings, Matrix          : Default (H.263)
Codec ID                         : DX50
Codec ID/Hint                    : DivX 5
Duration                         : 1h 25mn
Bit rate                         : 914 Kbps
Width                            : 640 pixels
Height                           : 272 pixels
Display aspect ratio             : 2.35:1
Frame rate                       : 25.000 fps
Color space                      : YUV
Chroma subsampling               : 4:2:0
Bit depth                        : 8 bits
Scan type                        : Progressive
Compression mode                 : Lossy
Bits/(Pixel*Frame)               : 0.210
Stream size                      : 561 MiB (87%)
Writing library                  : FFmpeg0.4.9-pre1b4752

Audio
ID                               : 1
Format                           : MPEG Audio
Format version                   : Version 1
Format profile                   : Layer 3
Mode                             : Joint stereo
Mode extension                   : MS Stereo
Codec ID                         : 55
Codec ID/Hint                    : MP3
Duration                         : 1h 25mn
Bit rate mode                    : Constant
Bit rate                         : 128 Kbps
Channel(s)                       : 2 channels
Sampling rate                    : 48.0 KHz
Compression mode                 : Lossy
Stream size                      : 78.6 MiB (12%)
Alignment                        : Split accross interleaves
Interleave, duration             : 500 ms (12.50 video frames)
Interleave, preload duration     : 500 ms

